<svg width="40" height="40" viewBox="0 0 40 40" fill="none" xmlns="http://www.w3.org/2000/svg">
<g clip-path="url(#clip0_1_3285)">
<path d="M27.9762 25H26.25V20H39.3788V25H35.6862" fill="#FF9F52"/>
<path d="M26.2463 12.5H33.4088L39.3663 20.0249L26.2363 20L26.2463 12.5Z" fill="#61B0FF"/>
<path d="M28.75 21.25H30.0175" stroke="#333333" stroke-linecap="round" stroke-linejoin="round"/>
<path fill-rule="evenodd" clip-rule="evenodd" d="M39.375 23.7501V22.5001H37.5087C36.6637 22.4876 36.6637 23.7626 37.5087 23.7501H39.375Z" fill="#F17F53"/>
<path d="M26.8825 12.4875H26.2575L26.25 19.9774C26.25 20.1432 26.3158 20.3021 26.4331 20.4193C26.5503 20.5366 26.7092 20.6024 26.875 20.6024L38.755 20.6237C38.8751 20.6238 38.9927 20.5893 39.0937 20.5243C39.1947 20.4594 39.2748 20.3668 39.3245 20.2574C39.3743 20.1481 39.3914 20.0268 39.374 19.908C39.3566 19.7892 39.3053 19.6779 39.2262 19.5874L33.8087 12.6886C33.7504 12.6215 33.6784 12.5676 33.5976 12.5305C33.5167 12.4935 33.4289 12.4741 33.34 12.4736C30.625 12.4736 26.8825 12.4875 26.8825 12.4875ZM27.5075 13.725H33.0575L37.3763 19.3712L27.5 19.3537L27.5075 13.7236V13.725Z" fill="#FF9F52"/>
<path d="M0.625 15.1537V8.75H26.25V25H0.625V18.5374" fill="#2CDD65"/>
<path d="M3.54 27.5H0V25H40V27.5H14.7413H3.54Z" fill="#333333"/>
<path d="M31.2496 23.75C30.1418 23.7508 29.0656 24.1195 28.19 24.7983C27.3144 25.477 26.6891 26.4273 26.4121 27.5H36.0859C35.809 26.4275 35.1838 25.4773 34.3085 24.7986C33.4331 24.1199 32.3572 23.7511 31.2496 23.75Z" fill="#7C7C7C"/>
<path d="M10 31.25C10.6904 31.25 11.25 30.6904 11.25 30C11.25 29.3096 10.6904 28.75 10 28.75C9.30964 28.75 8.75 29.3096 8.75 30C8.75 30.6904 9.30964 31.25 10 31.25Z" stroke="black" stroke-linecap="round" stroke-linejoin="round"/>
<path d="M31.25 32.5C33.3211 32.5 35 30.8211 35 28.75C35 26.6789 33.3211 25 31.25 25C29.1789 25 27.5 26.6789 27.5 28.75C27.5 30.8211 29.1789 32.5 31.25 32.5Z" fill="#333333"/>
<path d="M31.25 30C31.9404 30 32.5 29.4404 32.5 28.75C32.5 28.0596 31.9404 27.5 31.25 27.5C30.5596 27.5 30 28.0596 30 28.75C30 29.4404 30.5596 30 31.25 30Z" fill="#E9EDED"/>
<path d="M0.625 16.2537H7.29125L7.30875 15.625L7.3175 13.75L11.4613 17.4899L7.295 21.25L7.30375 19.375L7.29125 18.75H0.625" fill="#D2F9DF"/>
<path d="M9.99961 23.75C8.89177 23.7508 7.81557 24.1195 6.94 24.7983C6.06443 25.477 5.43907 26.4273 5.16211 27.5H14.8359C14.559 26.4275 13.9338 25.4773 13.0585 24.7986C12.1831 24.1199 11.1072 23.7511 9.99961 23.75Z" fill="#7C7C7C"/>
<path d="M10 32.5C12.0711 32.5 13.75 30.8211 13.75 28.75C13.75 26.6789 12.0711 25 10 25C7.92893 25 6.25 26.6789 6.25 28.75C6.25 30.8211 7.92893 32.5 10 32.5Z" fill="#333333"/>
<path d="M10 30C10.6904 30 11.25 29.4404 11.25 28.75C11.25 28.0596 10.6904 27.5 10 27.5C9.30964 27.5 8.75 28.0596 8.75 28.75C8.75 29.4404 9.30964 30 10 30Z" fill="#E9EDED"/>
<path fill-rule="evenodd" clip-rule="evenodd" d="M0.625 23.75V22.5H3.0975C3.26326 22.5 3.42223 22.5657 3.53944 22.683C3.65665 22.8002 3.7225 22.9592 3.7225 23.125C3.7225 23.2908 3.65665 23.4497 3.53944 23.5669C3.42223 23.6841 3.26326 23.75 3.0975 23.75H0.625Z" fill="#FF9F52"/>
</g>
<defs>
<clipPath id="clip0_1_3285">
<rect width="40" height="40" fill="white"/>
</clipPath>
</defs>
</svg>
